<svg width="318" height="140" viewBox="0 0 318 140" fill="none" xmlns="http://www.w3.org/2000/svg">
<path d="M312.748 110.07L280.681 112.876C279.233 113.003 277.949 112.674 276.829 111.89C275.739 111.069 275.14 110.036 275.031 108.79L274.832 106.518C274.723 105.272 275.135 104.168 276.069 103.204C277.033 102.204 278.239 101.64 279.687 101.513L311.754 98.7079C313.202 98.5812 314.47 98.9282 315.56 99.7489C316.68 100.533 317.295 101.548 317.404 102.793L317.602 105.066C317.711 106.312 317.284 107.435 316.32 108.435C315.386 109.399 314.196 109.944 312.748 110.07Z" fill="#F7F8FD"/>
<path d="M67.2062 133.929C67.2062 133.929 65.7528 134.069 63.5785 134.278C61.4041 134.464 58.5089 134.743 55.5905 135.022C52.7185 135.278 49.8349 135.569 47.6955 135.778C45.5444 135.964 44.1026 136.08 44.1026 136.08C42.4515 136.255 41.5562 135.917 41.3934 135.127C41.3353 134.79 41.3934 134.417 41.5446 134.045C41.7655 133.534 42.0329 133.022 42.3585 132.522C43.1608 131.139 43.9747 129.778 44.7886 128.418C45.6258 127.057 46.463 125.709 47.2885 124.337C48.1141 122.976 48.9396 121.616 49.7303 120.255C50.5558 118.907 51.3465 117.558 52.0906 116.197C52.8696 114.825 53.6022 113.477 54.3696 112.139C55.0788 110.779 55.7997 109.395 56.509 108.058C57.195 106.709 57.8927 105.372 58.5671 104.012C59.2182 102.675 59.8693 101.303 60.4972 99.954C61.253 98.3494 61.9739 96.7448 62.6715 95.1402C63.3808 93.524 64.0435 91.9195 64.6947 90.3149C65.3458 88.7219 65.9621 87.129 66.5551 85.5477C67.1597 83.9198 67.7294 82.3385 68.2759 80.7688C68.3224 80.5246 68.4387 80.2223 68.6131 79.8968C69.7177 76.8736 70.3688 74.6063 70.5316 73.0715C70.7177 71.5367 70.4386 70.7111 69.6712 70.6181C68.8224 70.7344 67.7411 71.432 66.462 72.7692C65.1947 74.0831 63.6947 76.0248 62.0204 78.548C61.16 79.8386 60.2879 81.1409 59.4391 82.478C58.5903 83.8035 57.7415 85.164 56.9043 86.5592C56.0439 87.9661 55.1951 89.3963 54.3347 90.8846C53.4859 92.3497 52.6604 93.8496 51.8116 95.3728C50.986 96.9076 50.1953 98.3726 49.4047 99.8028C48.6489 101.256 47.928 102.663 47.2187 103.989C45.8235 106.709 44.5561 109.221 43.4166 111.605C42.3585 113.825 41.4167 115.883 40.5795 117.721C39.7656 119.593 39.1028 121.244 38.5564 122.72C37.5215 125.697 37.0099 127.906 36.9285 129.371C36.9867 130.243 36.8239 131.243 36.3704 132.29C35.8472 133.592 34.9984 134.627 33.8938 135.499C32.1032 136.72 29.5103 137.475 26.1151 137.789C26.1151 137.789 24.7198 137.929 22.6036 138.103C20.5223 138.289 17.7317 138.568 14.9644 138.813C12.1622 139.068 9.39491 139.313 7.32524 139.534C5.27883 139.743 3.9068 139.871 3.9068 139.871C0.802289 140.161 0.162783 139.313 0 137.603L0.453467 136.15C0.686015 135.557 0.988326 134.917 1.34877 134.301C2.36036 132.464 3.37194 130.662 4.38352 128.848C5.38347 127.034 6.40668 125.22 7.37175 123.406C8.36008 121.593 9.32515 119.779 10.2786 117.965C11.2088 116.163 12.139 114.36 13.0692 112.546C13.9645 110.733 14.8598 108.942 15.7202 107.128C16.6388 105.326 17.5108 103.512 18.4061 101.698C19.3014 99.9191 20.2084 98.1052 21.092 96.303C21.9874 94.524 22.8827 92.7217 23.7431 90.9311C24.5337 89.2917 25.3012 87.6638 26.0453 86.0476C26.7895 84.4082 27.5336 82.792 28.2429 81.1758C28.9521 79.5596 29.6498 77.9317 30.3474 76.3039C31.0218 74.6877 31.673 73.0715 32.3241 71.4437C32.9636 69.8275 33.5915 68.2345 34.1961 66.6183C34.8123 65.0137 35.417 63.3859 35.9751 61.7697C36.5564 60.1535 37.1029 58.5605 37.6262 56.9327C38.1494 55.3165 38.6726 53.7119 39.161 52.0957L39.2191 51.9329C39.5331 50.5958 39.9865 49.2121 40.5795 47.8285C40.9748 46.9332 41.4167 46.0146 41.9167 45.0844C43.3352 42.5031 44.8119 40.9102 46.4281 40.259C48.0443 39.5498 49.8 39.0963 51.7069 38.8986L52.5092 38.8056C54.4626 38.608 56.2416 38.387 57.8462 38.201C59.4624 38.0266 60.9158 37.8406 62.218 37.701C64.8342 37.4103 66.8109 37.1313 68.1364 36.9685L68.741 36.9104C70.5665 36.7127 72.1246 36.7127 73.3454 36.9453C74.5896 37.2011 75.5198 37.6429 76.1128 38.294C76.7523 39.2358 76.9499 40.3288 76.7988 41.4916C76.5895 42.6892 76.3453 43.7938 75.9965 44.8519L75.5663 45.8751C75.5663 45.8751 74.2756 49.34 72.9385 52.7934C71.5316 56.2467 70.0549 59.7 70.0549 59.7C73.1943 58.0838 76.1476 57.0025 78.9033 56.4444C81.6706 55.9095 83.7054 55.549 84.9844 55.4444C87.182 55.2118 89.1238 55.2118 90.7749 55.4328C93.2864 55.8514 95.3212 56.7234 96.8327 58.0257C98.3443 59.3279 99.3559 61.072 99.8907 63.2231C100.077 64.2812 100.112 65.4207 100.054 66.6532C100.007 67.9089 99.7977 69.2345 99.4954 70.6879C99.1815 72.1297 98.7396 73.6994 98.1815 75.3388C97.6001 77.0015 96.9258 78.7573 96.0886 80.606C95.3096 82.4664 94.4724 84.3733 93.5887 86.2453C92.7515 88.1406 91.8446 90.0242 90.9377 91.9427L88.6471 96.5006L85.8914 102.175C85.0193 104.058 84.1822 105.965 83.3682 107.837C82.5776 109.733 81.7869 111.628 80.9846 113.523C79.9382 116.116 78.9847 118.697 78.1476 121.244C77.322 123.802 76.5546 126.348 75.9732 128.836C75.8337 129.487 75.5895 130.162 75.3105 130.813C74.9733 131.522 74.4733 132.139 73.7989 132.662C72.9036 133.185 70.7177 133.592 67.2062 133.929Z" fill="#F7F8FD"/>
<path d="M96.0765 131.011C94.9371 131.115 93.8208 131.08 92.7744 130.848C91.3558 130.441 90.2512 129.732 89.4838 128.732C88.728 127.743 88.3327 126.499 88.263 124.964C88.1351 123.023 88.3792 120.895 88.9257 118.558C89.5071 116.232 90.3791 113.709 91.6116 110.977C92.4837 109.093 93.4604 107.291 94.5534 105.582C95.6347 103.896 96.8091 102.268 98.0532 100.768C99.3206 99.2446 100.658 97.8493 102.065 96.5122C103.472 95.2099 104.948 93.989 106.506 92.8496C109.239 90.8613 111.971 89.4311 114.75 88.5939L116.959 88.0242C118.471 87.7335 119.948 87.2801 121.436 86.7336C122.901 86.1755 124.18 85.2685 125.284 84.036C125.715 83.5128 126.052 82.9779 126.284 82.4547C126.668 81.664 126.773 80.8966 126.61 80.199C126.145 78.5363 124.715 77.7921 122.296 78.0712C120.738 78.2456 118.541 78.92 115.645 80.1176C113.599 80.978 112.053 81.478 111.029 81.5943C110.25 81.6757 109.588 81.5826 109.088 81.2454C108.46 80.7571 108.239 80.0129 108.413 78.9897C108.576 77.827 108.971 76.4317 109.576 74.7806C110.134 73.1063 110.936 71.1761 111.925 69.0135C112.646 67.4321 113.459 65.9438 114.332 64.5834C115.215 63.2114 116.18 61.9556 117.227 60.7929C119.32 58.4791 121.75 56.5954 124.564 55.142C126.47 54.142 128.284 53.3049 129.959 52.6886C131.645 52.0375 133.261 51.584 134.772 51.305C137.889 50.7352 140.377 50.3399 142.272 50.1539C144.179 49.9446 145.958 49.8399 147.563 49.8167C149.435 49.7469 151.19 49.805 152.841 50.0492C154.469 50.305 156.027 50.6771 157.492 51.2236C158.829 51.7817 159.981 52.4328 160.922 53.2351C161.841 54.049 162.597 55.0025 163.12 56.0838C163.655 57.1419 163.992 58.3628 164.12 59.7116C164.248 61.072 164.155 62.5603 163.911 64.1881C163.632 65.7229 163.19 67.5019 162.585 69.5018C161.98 71.5598 161.19 73.8388 160.213 76.3736C159.736 77.6642 159.202 79.013 158.597 80.4315C158.05 81.8268 157.399 83.3035 156.737 84.8383C156.074 86.3731 155.388 87.9777 154.655 89.6288C153.934 91.3031 153.179 93.0356 152.388 94.8146L149.458 101.221C148.725 102.791 147.981 104.384 147.249 105.965C146.504 107.547 145.784 109.14 145.051 110.744C144.295 112.337 143.563 113.942 142.853 115.558C142.144 117.151 141.47 118.744 140.784 120.372C139.586 123.209 138.121 125.15 136.377 126.208C135.261 126.72 134.214 126.999 133.226 127.104C133.226 127.104 129.517 127.487 125.784 127.86C122.075 128.243 118.389 128.604 118.389 128.604L117.145 128.79C115.273 128.953 113.808 128.871 112.715 128.522C111.622 128.15 110.925 127.522 110.622 126.639C110.39 125.871 110.436 125.011 110.82 124.104L111.029 123.581C109.495 124.802 108.053 125.871 106.634 126.767C105.251 127.697 103.89 128.441 102.576 129.022C99.9717 130.185 97.8207 130.848 96.0765 131.011ZM104.181 108.256C106.03 108.047 108.471 106.988 111.46 105C113.739 103.512 115.529 101.977 116.878 100.419C117.517 99.6748 117.959 99.0586 118.203 98.4772C118.482 97.861 118.541 97.361 118.378 96.9657C118.122 96.3029 117.471 96.0471 116.413 96.1401C114.738 96.3261 112.483 97.3377 109.634 99.2911C105.913 101.768 103.565 103.989 102.611 105.942C102.309 106.605 102.251 107.174 102.413 107.698C102.599 108.151 103.192 108.349 104.181 108.256Z" fill="#F7F8FD"/>
<path d="M198.716 121.453L197.775 121.534C194.833 121.744 192.217 121.93 189.903 122.081C187.589 122.279 185.578 122.418 183.857 122.569C180.427 122.802 178.206 122.999 177.264 123.069C175.741 123.209 174.241 123.302 172.753 123.348C171.287 123.36 169.834 123.348 168.404 123.267C166.892 123.209 165.544 122.988 164.358 122.627C163.172 122.279 162.148 121.79 161.265 121.127C160.439 120.476 159.742 119.697 159.218 118.779C158.707 117.825 158.346 116.767 158.137 115.546C157.87 113.918 157.8 112.151 157.904 110.244C158.009 108.337 158.323 106.279 158.8 104.093C159.265 101.64 159.904 99.175 160.73 96.6984C161.555 94.1985 162.602 91.6986 163.799 89.1638C164.637 87.3732 165.555 85.5477 166.52 83.7687C167.509 81.9665 168.543 80.1759 169.66 78.3504C170.788 76.5365 171.962 74.7575 173.264 73.0018C174.532 71.2693 175.869 69.5368 177.299 67.8276C178.717 66.1533 180.264 64.5371 181.903 63.0139C183.543 61.4674 185.287 60.0256 187.089 58.6769C188.903 57.2932 190.601 56.1537 192.147 55.2468C193.693 54.3515 195.135 53.6887 196.426 53.2701C199.065 52.4097 201.042 51.933 202.333 51.7818C204.426 51.5725 206.298 51.7702 207.914 52.4562C208.704 52.8748 209.495 53.0725 210.239 53.0027C211.251 52.8748 212.03 52.3283 212.576 51.3167C213.193 50.2703 213.995 48.5262 214.948 46.1077C215.809 43.8287 216.53 41.5963 217.099 39.3754C217.646 37.1546 218.041 34.9338 218.297 32.7595C218.274 31.7828 218.402 30.527 218.727 28.9806L219.076 27.5155C219.902 24.3761 221.785 22.0274 224.82 20.4577C226.576 19.5624 228.645 18.7834 231.029 18.1671C232.238 17.8648 233.517 17.5741 234.866 17.3416C236.215 17.109 237.633 16.8997 239.156 16.7137C241.04 16.4811 242.691 16.4579 244.086 16.5974C245.493 16.7253 246.656 17.0393 247.586 17.5509C249.412 18.5741 250.33 20.2949 250.261 22.7715L249.889 24.6087C249.319 26.8528 248.493 28.9806 247.389 31.0154C246.668 32.5385 245.947 34.0152 245.214 35.55C244.447 37.0732 243.726 38.5615 242.982 40.0847C242.238 41.5846 241.494 43.0962 240.761 44.5961C240.017 46.1193 239.308 47.6076 238.587 49.1075C237.854 50.5842 237.145 52.1074 236.459 53.5957C235.761 55.1073 235.064 56.6072 234.401 58.0839C233.715 59.5722 233.029 61.0721 232.401 62.5488C231.738 64.072 231.099 65.5486 230.471 67.0369C229.901 68.4206 229.32 69.7926 228.762 71.1647C228.215 72.5483 227.669 73.9087 227.134 75.2808C226.587 76.676 226.064 78.0481 225.564 79.4085C225.064 80.7689 224.576 82.1525 224.099 83.5129C223.611 84.8966 223.146 86.2454 222.704 87.6058C222.25 88.9778 221.808 90.3266 221.39 91.7102C220.971 93.0706 220.564 94.4078 220.181 95.7682C219.774 97.1402 219.402 98.489 219.053 99.8494C218.785 101.28 218.402 102.733 217.902 104.268C217.39 105.756 216.797 107.314 216.076 108.919C215.158 111.023 213.937 112.988 212.425 114.814C211.03 116.453 209.565 117.779 207.972 118.767C206.379 119.755 204.693 120.453 202.879 120.814C201.379 121.116 199.995 121.314 198.716 121.453ZM186.426 91.3847C188.647 91.1172 190.973 89.6638 193.473 87.0011C194.728 85.6407 195.926 84.1292 197.042 82.4316C198.182 80.7107 199.228 78.8155 200.193 76.7109C201.274 74.3971 202.054 72.2925 202.542 70.4786C203.042 68.6648 203.251 67.0718 203.181 65.7347C203.065 63.0488 201.949 61.8163 199.856 62.0372C197.833 62.2465 195.519 63.8278 192.938 66.723C191.635 68.1764 190.449 69.781 189.345 71.467C188.24 73.1995 187.229 75.0366 186.333 76.99C185.333 79.1527 184.601 81.1293 184.101 82.9083C183.601 84.664 183.392 86.2221 183.415 87.5941C183.473 90.3149 184.45 91.5707 186.357 91.3963L186.426 91.3847Z" fill="#F7F8FD"/>
<path d="M247.909 116.066C247.909 116.066 246.557 116.2 244.534 116.378C242.511 116.557 239.818 116.813 237.124 117.036C234.443 117.303 231.749 117.515 229.749 117.693C227.727 117.893 226.409 118.027 226.409 118.027C225.01 118.15 224.074 117.715 223.554 116.746C223.068 115.71 223.138 114.429 223.796 112.903L226.86 107.867C227.877 106.174 229.01 104.258 230.281 102.041C231.506 99.8468 232.882 97.3849 234.373 94.6667C235.101 93.3188 235.841 91.9152 236.569 90.5115C237.286 89.0856 238.014 87.6486 238.731 86.167C239.459 84.7077 240.153 83.2261 240.846 81.6999C241.563 80.1849 242.245 78.6364 242.927 77.0546C243.609 75.5173 244.256 73.98 244.881 72.4761C245.493 70.961 246.083 69.4906 246.626 68.0313C247.181 66.6054 247.701 65.1906 248.187 63.787C248.672 62.4056 249.146 61.0577 249.574 59.732C250.418 57.0585 251.157 54.6745 251.77 52.5357C252.371 50.3968 252.868 48.5476 253.25 46.9323L254.278 42.1199C254.937 40.2261 255.943 38.7334 257.342 37.6751C258.729 36.6056 260.486 35.9484 262.67 35.7033L262.878 35.681C263.664 35.5919 264.867 35.4025 266.439 35.1129C267.71 34.8455 269.028 34.645 270.392 34.4222C271.779 34.2106 273.201 34.0435 274.68 33.8652C276.403 33.6759 277.848 33.6313 279.038 33.7093C280.229 33.7873 281.188 33.9878 281.882 34.3554C283.269 35.0683 283.708 36.3383 283.13 38.1318C283.049 38.3657 282.98 38.5997 282.853 38.8448C282.76 39.0564 281.651 41.5295 279.501 46.2528C278.957 47.4336 278.379 48.659 277.778 50.0181C277.177 51.3326 276.53 52.7362 275.883 54.2178C275.201 55.7217 274.507 57.2924 273.779 58.93C273.039 60.5787 272.276 62.3054 271.479 64.1212C271.479 64.1212 270.982 65.4134 270.219 67.3629C269.456 69.3458 268.427 71.9748 267.375 74.5815C266.323 77.1994 265.283 79.8061 264.474 81.7556C263.676 83.7496 263.144 85.053 263.144 85.053C262.509 86.8577 261.896 88.5732 261.341 90.2219C260.763 91.8706 260.231 93.4413 259.734 94.9229C259.249 96.4045 258.786 97.8193 258.382 99.1561C257.954 100.493 257.584 101.741 257.238 102.921L255.099 110.04C254.475 111.566 253.446 112.947 252.036 114.15C250.614 115.298 249.227 115.933 247.909 116.066ZM273.247 30.1445C271.929 30.2893 270.704 30.2671 269.594 30.0554C268.473 29.8215 267.444 29.4538 266.577 28.8746C264.797 27.7383 263.595 26.1007 262.913 23.9953C262.509 22.8145 262.277 21.6002 262.22 20.3637C262.162 19.1049 262.254 17.8238 262.543 16.5204C262.971 14.4707 263.722 12.5324 264.797 10.6943C265.884 8.84506 267.306 7.12952 269.063 5.51423C270.831 3.88781 272.611 2.60672 274.449 1.70439C276.264 0.779784 278.114 0.21165 279.986 -7.62939e-06C282.633 0.0779716 284.795 0.0556919 286.587 1.19196C288.39 2.32823 289.65 3.96579 290.355 6.07123C290.76 7.28548 290.968 8.522 291.014 9.76967C291.072 11.0285 290.944 12.2984 290.655 13.6241C290.193 15.6849 289.396 17.6233 288.274 19.4614C287.165 21.2994 285.72 23.0261 283.974 24.6637C282.229 26.279 280.483 27.5266 278.715 28.4401C276.935 29.3647 275.12 29.9217 273.247 30.1445Z" fill="#F7F8FD"/>
</svg>
