<svg width="341" height="163" viewBox="0 0 341 163" fill="none" xmlns="http://www.w3.org/2000/svg">
<path d="M285.52 128.283L285.596 128.341L285.675 128.396C287.924 129.97 290.512 130.587 293.16 130.355L325.227 127.549C327.875 127.318 330.337 126.258 332.27 124.261L332.28 124.252C334.21 122.249 335.345 119.604 335.081 116.587L334.883 114.314C334.621 111.319 333.061 108.916 330.792 107.298C328.559 105.646 325.949 104.995 323.275 105.229L291.207 108.034C288.505 108.271 286.044 109.382 284.114 111.382C282.165 113.396 281.094 116.038 281.353 118.997L281.552 121.27C281.81 124.22 283.312 126.62 285.52 128.283Z" stroke="#F7F8FD" stroke-width="11"/>
<mask id="path-2-outside-1_1_888" maskUnits="userSpaceOnUse" x="0" y="37.7662" width="124" height="126" fill="black">
<rect fill="white" y="37.7662" width="124" height="126"/>
<path d="M79.2062 145.929C79.2062 145.929 77.7528 146.069 75.5785 146.278C73.4041 146.464 70.5089 146.743 67.5905 147.022C64.7185 147.278 61.8349 147.569 59.6955 147.778C57.5444 147.964 56.1026 148.08 56.1026 148.08C54.4515 148.255 53.5562 147.917 53.3934 147.127C53.3353 146.79 53.3934 146.417 53.5446 146.045C53.7655 145.534 54.0329 145.022 54.3585 144.522C55.1608 143.139 55.9747 141.778 56.7886 140.418C57.6258 139.057 58.463 137.709 59.2885 136.337C60.1141 134.976 60.9396 133.616 61.7303 132.255C62.5558 130.907 63.3465 129.558 64.0906 128.197C64.8696 126.825 65.6022 125.477 66.3696 124.139C67.0788 122.779 67.7997 121.395 68.509 120.058C69.195 118.709 69.8927 117.372 70.5671 116.012C71.2182 114.675 71.8693 113.303 72.4972 111.954C73.253 110.349 73.9739 108.745 74.6715 107.14C75.3808 105.524 76.0435 103.919 76.6947 102.315C77.3458 100.722 77.9621 99.129 78.5551 97.5476C79.1597 95.9198 79.7294 94.3385 80.2759 92.7688C80.3224 92.5246 80.4387 92.2223 80.6131 91.8968C81.7177 88.8736 82.3688 86.6063 82.5316 85.0715C82.7177 83.5367 82.4386 82.7111 81.6712 82.6181C80.8224 82.7344 79.7411 83.432 78.462 84.7692C77.1947 86.0831 75.6947 88.0248 74.0204 90.548C73.16 91.8386 72.2879 93.1409 71.4391 94.478C70.5903 95.8035 69.7415 97.1639 68.9043 98.5592C68.0439 99.9661 67.1951 101.396 66.3347 102.885C65.4859 104.35 64.6604 105.85 63.8116 107.373C62.986 108.908 62.1953 110.373 61.4047 111.803C60.6489 113.256 59.928 114.663 59.2187 115.989C57.8235 118.709 56.5561 121.221 55.4166 123.605C54.3585 125.825 53.4167 127.883 52.5795 129.721C51.7656 131.593 51.1028 133.244 50.5564 134.72C49.5215 137.697 49.0099 139.906 48.9285 141.371C48.9867 142.243 48.8239 143.243 48.3704 144.29C47.8472 145.592 46.9984 146.627 45.8938 147.499C44.1032 148.72 41.5103 149.475 38.1151 149.789C38.1151 149.789 36.7198 149.929 34.6036 150.103C32.5223 150.289 29.7317 150.568 26.9644 150.813C24.1622 151.068 21.3949 151.313 19.3252 151.534C17.2788 151.743 15.9068 151.871 15.9068 151.871C12.8023 152.161 12.1628 151.313 12 149.603L12.4535 148.15C12.686 147.557 12.9883 146.917 13.3488 146.301C14.3604 144.464 15.3719 142.662 16.3835 140.848C17.3835 139.034 18.4067 137.22 19.3718 135.406C20.3601 133.592 21.3251 131.779 22.2786 129.965C23.2088 128.163 24.139 126.36 25.0692 124.546C25.9645 122.733 26.8598 120.942 27.7202 119.128C28.6388 117.326 29.5108 115.512 30.4061 113.698C31.3014 111.919 32.2084 110.105 33.092 108.303C33.9874 106.524 34.8827 104.722 35.7431 102.931C36.5337 101.292 37.3012 99.6638 38.0453 98.0476C38.7895 96.4082 39.5336 94.792 40.2429 93.1758C40.9521 91.5596 41.6498 89.9317 42.3474 88.3039C43.0218 86.6877 43.673 85.0715 44.3241 83.4436C44.9636 81.8274 45.5915 80.2345 46.1961 78.6183C46.8123 77.0137 47.417 75.3859 47.9751 73.7697C48.5564 72.1535 49.1029 70.5605 49.6262 68.9327C50.1494 67.3165 50.6726 65.7119 51.161 64.0957L51.2191 63.9329C51.5331 62.5958 51.9865 61.2121 52.5795 59.8285C52.9748 58.9332 53.4167 58.0146 53.9167 57.0844C55.3352 54.5031 56.8119 52.9102 58.4281 52.259C60.0443 51.5498 61.8 51.0963 63.7069 50.8986L64.5092 50.8056C66.4626 50.608 68.2416 50.387 69.8462 50.201C71.4624 50.0266 72.9158 49.8405 74.218 49.701C76.8342 49.4103 78.8109 49.1313 80.1364 48.9685L80.741 48.9104C82.5665 48.7127 84.1246 48.7127 85.3454 48.9452C86.5896 49.201 87.5198 49.6429 88.1128 50.294C88.7523 51.2358 88.9499 52.3288 88.7988 53.4915C88.5895 54.6892 88.3453 55.7938 87.9965 56.8519L87.5663 57.8751C87.5663 57.8751 86.2756 61.34 84.9385 64.7933C83.5316 68.2467 82.0549 71.7 82.0549 71.7C85.1943 70.0838 88.1476 69.0025 90.9033 68.4443C93.6706 67.9095 95.7054 67.549 96.9844 67.4444C99.182 67.2118 101.124 67.2118 102.775 67.4328C105.286 67.8513 107.321 68.7234 108.833 70.0257C110.344 71.3279 111.356 73.072 111.891 75.2231C112.077 76.2812 112.112 77.4207 112.054 78.6532C112.007 79.9089 111.798 81.2345 111.495 82.6879C111.181 84.1297 110.74 85.6994 110.182 87.3388C109.6 89.0015 108.926 90.7573 108.089 92.606C107.31 94.4664 106.472 96.3733 105.589 98.2453C104.752 100.141 103.845 102.024 102.938 103.943L100.647 108.501L97.8914 114.175C97.0193 116.058 96.1822 117.965 95.3682 119.837C94.5776 121.733 93.7869 123.628 92.9846 125.523C91.9382 128.116 90.9847 130.697 90.1476 133.244C89.322 135.802 88.5546 138.348 87.9732 140.836C87.8337 141.487 87.5895 142.162 87.3105 142.813C86.9733 143.522 86.4733 144.139 85.7989 144.662C84.9036 145.185 82.7177 145.592 79.2062 145.929Z"/>
</mask>
<path d="M79.2062 145.929L80.2574 156.879L80.2576 156.879L79.2062 145.929ZM75.5785 146.278L76.5162 157.238L76.5743 157.233L76.6324 157.227L75.5785 146.278ZM67.5905 147.022L68.5663 157.979L68.6019 157.976L68.6375 157.972L67.5905 147.022ZM59.6955 147.778L60.6433 158.737L60.7049 158.732L60.7664 158.726L59.6955 147.778ZM56.1026 148.08L55.2184 137.116L55.0826 137.127L54.9471 137.141L56.1026 148.08ZM53.3934 147.127L42.5534 148.996L42.5836 149.171L42.6194 149.345L53.3934 147.127ZM53.5446 146.045L43.4459 141.685L43.3985 141.794L43.3535 141.905L53.5446 146.045ZM54.3585 144.522L63.5765 150.525L63.7318 150.286L63.8745 150.04L54.3585 144.522ZM56.7886 140.418L47.4204 134.653L47.3844 134.711L47.3491 134.77L56.7886 140.418ZM59.2885 136.337L49.8846 130.63L49.8738 130.648L49.8631 130.665L59.2885 136.337ZM61.7303 132.255L52.3482 126.513L52.2828 126.62L52.2199 126.728L61.7303 132.255ZM64.0906 128.197L54.525 122.766L54.4819 122.842L54.4401 122.918L64.0906 128.197ZM66.3696 124.139L75.91 129.615L76.0207 129.422L76.1235 129.225L66.3696 124.139ZM68.509 120.058L78.2266 125.213L78.2708 125.129L78.3137 125.045L68.509 120.058ZM70.5671 116.012L80.4225 120.898L80.4398 120.863L80.4568 120.828L70.5671 116.012ZM72.4972 111.954L62.5458 107.267L62.5353 107.289L62.5248 107.312L72.4972 111.954ZM74.6715 107.14L64.5988 102.72L64.5912 102.737L64.5837 102.754L74.6715 107.14ZM76.6947 102.315L66.5125 98.1528L66.5072 98.1657L66.5019 98.1787L76.6947 102.315ZM78.5551 97.5476L88.8547 101.41L88.8607 101.394L88.8667 101.378L78.5551 97.5476ZM80.2759 92.7688L90.6643 96.3855L90.9303 95.6216L91.0816 94.827L80.2759 92.7688ZM80.6131 91.8968L90.3094 97.0912L90.6775 96.4041L90.945 95.6719L80.6131 91.8968ZM82.5316 85.0715L71.6115 83.7478L71.6016 83.8295L71.593 83.9113L82.5316 85.0715ZM81.6712 82.6181L82.9948 71.698L81.5852 71.5272L80.1783 71.7199L81.6712 82.6181ZM78.462 84.7692L86.3791 92.406L86.3951 92.3893L86.4111 92.3726L78.462 84.7692ZM74.0204 90.548L83.1729 96.6497L83.1794 96.6399L83.1859 96.6302L74.0204 90.548ZM71.4391 94.478L80.7026 100.41L80.7144 100.392L80.726 100.373L71.4391 94.478ZM68.9043 98.5592L78.2885 104.298L78.3128 104.259L78.3368 104.219L68.9043 98.5592ZM66.3347 102.885L75.8527 108.399L75.8578 108.39L66.3347 102.885ZM63.8116 107.373L54.2028 102.018L54.1629 102.09L54.124 102.162L63.8116 107.373ZM61.4047 111.803L51.7779 106.481L51.71 106.603L51.6453 106.728L61.4047 111.803ZM59.2187 115.989L49.5199 110.799L49.4746 110.884L49.4308 110.969L59.2187 115.989ZM55.4166 123.605L45.4923 118.86L45.4892 118.867L45.4861 118.873L55.4166 123.605ZM52.5795 129.721L42.5698 125.159L42.53 125.247L42.4917 125.335L52.5795 129.721ZM50.5564 134.72L40.2401 130.903L40.2022 131.005L40.1663 131.108L50.5564 134.72ZM48.9285 141.371L37.9455 140.761L37.9082 141.432L37.9529 142.103L48.9285 141.371ZM48.3704 144.29L38.2773 139.916L38.2185 140.052L38.1635 140.189L48.3704 144.29ZM45.8938 147.499L52.0905 156.587L52.4081 156.371L52.7099 156.133L45.8938 147.499ZM38.1151 149.789L37.1023 138.836L37.0614 138.84L37.0205 138.844L38.1151 149.789ZM34.6036 150.103L33.7001 139.141L33.6622 139.144L33.6243 139.147L34.6036 150.103ZM26.9644 150.813L25.9976 139.855L25.981 139.857L25.9644 139.858L26.9644 150.813ZM19.3252 151.534L20.4444 162.476L20.4686 162.474L20.4928 162.471L19.3252 151.534ZM15.9068 151.871L14.8858 140.918L14.8813 140.919L15.9068 151.871ZM12 149.603L1.49923 146.327L0.839565 148.441L1.04955 150.646L12 149.603ZM12.4535 148.15L2.21276 144.134L2.06954 144.499L1.95269 144.874L12.4535 148.15ZM13.3488 146.301L22.8438 151.855L22.9158 151.732L22.9846 151.607L13.3488 146.301ZM16.3835 140.848L25.9905 146.206L26.0037 146.182L26.0167 146.159L16.3835 140.848ZM19.3718 135.406L9.71254 130.143L9.68638 130.191L9.6607 130.24L19.3718 135.406ZM22.2786 129.965L32.0154 135.083L32.0345 135.046L32.0534 135.01L22.2786 129.965ZM25.0692 124.546L34.8572 129.566L34.8957 129.491L34.933 129.415L25.0692 124.546ZM27.7202 119.128L17.9197 114.133L17.8487 114.272L17.7817 114.414L27.7202 119.128ZM30.4061 113.698L20.5803 108.753L20.5611 108.791L20.5423 108.829L30.4061 113.698ZM33.092 108.303L23.2662 103.358L23.2406 103.409L23.2154 103.46L33.092 108.303ZM35.7431 102.931L25.8351 98.1528L25.8317 98.1599L25.8283 98.1669L35.7431 102.931ZM38.0453 98.0476L48.0371 102.648L48.0495 102.621L48.0618 102.594L38.0453 98.0476ZM42.3474 88.3039L52.458 92.637L52.4788 92.5885L52.4991 92.5398L42.3474 88.3039ZM44.3241 83.4436L54.5373 87.5289L54.5449 87.5099L54.5525 87.4909L44.3241 83.4436ZM46.1961 78.6183L35.9274 74.6745L35.9102 74.7192L35.8934 74.7641L46.1961 78.6183ZM47.9751 73.7697L37.6244 70.0464L37.6005 70.1126L37.5776 70.1792L47.9751 73.7697ZM49.6262 68.9327L39.1609 65.5447L39.1574 65.5556L39.1539 65.5666L49.6262 68.9327ZM51.161 64.0957L40.8018 60.396L40.7101 60.6529L40.6312 60.914L51.161 64.0957ZM51.2191 63.9329L61.5783 67.6326L61.7865 67.0497L61.9279 66.4472L51.2191 63.9329ZM52.5795 59.8285L42.5168 55.3852L42.4926 55.4401L42.4689 55.4953L52.5795 59.8285ZM53.9167 57.0844L44.2765 51.7866L44.2518 51.8315L44.2276 51.8765L53.9167 57.0844ZM58.4281 52.259L62.5387 62.4621L62.6946 62.3993L62.8485 62.3318L58.4281 52.259ZM63.7069 50.8986L64.8411 61.84L64.9075 61.8331L64.9738 61.8254L63.7069 50.8986ZM64.5092 50.8056L63.4018 39.8615L63.322 39.8696L63.2423 39.8788L64.5092 50.8056ZM69.8462 50.201L68.666 39.2645L68.6226 39.2692L68.5793 39.2742L69.8462 50.201ZM74.218 49.701L75.3899 60.6384L75.4114 60.6361L75.4328 60.6337L74.218 49.701ZM80.1364 48.9685L79.0835 38.019L78.9393 38.0329L78.7956 38.0505L80.1364 48.9685ZM80.741 48.9104L81.7939 59.8599L81.8596 59.8535L81.9252 59.8464L80.741 48.9104ZM85.3454 48.9452L87.5608 38.1706L87.4823 38.1545L87.4037 38.1395L85.3454 48.9452ZM88.1128 50.294L97.2131 44.1148L96.773 43.4666L96.2455 42.8874L88.1128 50.294ZM88.7988 53.4915L99.6346 55.3852L99.676 55.1482L99.707 54.9096L88.7988 53.4915ZM87.9965 56.8519L98.1367 61.1153L98.3063 60.7117L98.4434 60.2959L87.9965 56.8519ZM87.5663 57.8751L77.4261 53.6116L77.3377 53.8218L77.2582 54.0354L87.5663 57.8751ZM84.9385 64.7933L95.1255 68.9436L95.1617 68.8547L95.1964 68.7652L84.9385 64.7933ZM82.0549 71.7L71.9408 67.3751L59.9306 95.4621L87.0898 81.4801L82.0549 71.7ZM90.9033 68.4443L88.8159 57.6442L88.7678 57.6535L88.7198 57.6632L90.9033 68.4443ZM96.9844 67.4444L97.8814 78.4078L98.0119 78.3971L98.142 78.3833L96.9844 67.4444ZM102.775 67.4328L104.583 56.5824L104.409 56.5534L104.234 56.5299L102.775 67.4328ZM111.891 75.2231L122.725 73.3183L122.658 72.9408L122.566 72.5688L111.891 75.2231ZM112.054 78.6532L101.066 78.1349L101.063 78.1905L101.061 78.246L112.054 78.6532ZM111.495 82.6879L122.244 85.0282L122.254 84.9781L122.265 84.9279L111.495 82.6879ZM110.182 87.3388L120.565 90.9694L120.58 90.9266L120.595 90.8837L110.182 87.3388ZM108.089 92.606L98.0681 88.0684L98.0031 88.2119L97.9423 88.3572L108.089 92.606ZM105.589 98.2453L95.6413 93.5496L95.5824 93.6744L95.5266 93.8007L105.589 98.2453ZM102.938 103.943L112.766 108.882L112.826 108.764L112.882 108.644L102.938 103.943ZM100.647 108.501L90.8184 103.561L90.7849 103.628L90.7523 103.695L100.647 108.501ZM97.8914 114.175L87.9966 109.369L87.952 109.461L87.9092 109.553L97.8914 114.175ZM95.3682 119.837L85.2805 115.451L85.2478 115.526L85.2162 115.602L95.3682 119.837ZM92.9846 125.523L82.8548 121.235L82.8187 121.32L82.784 121.406L92.9846 125.523ZM90.1476 133.244L79.6978 129.808L79.6884 129.837L79.6792 129.865L90.1476 133.244ZM87.9732 140.836L77.2617 138.334L77.2387 138.432L77.2174 138.532L87.9732 140.836ZM87.3105 142.813L97.2449 147.536L97.3368 147.343L97.4211 147.146L87.3105 142.813ZM85.7989 144.662L91.3492 154.159L91.972 153.795L92.5419 153.353L85.7989 144.662ZM79.2062 145.929C78.155 134.979 78.155 134.979 78.155 134.979C78.155 134.979 78.1549 134.979 78.1549 134.979C78.1549 134.979 78.1548 134.979 78.1547 134.979C78.1545 134.98 78.1543 134.98 78.1539 134.98C78.1532 134.98 78.1521 134.98 78.1507 134.98C78.1479 134.98 78.1436 134.981 78.138 134.981C78.1268 134.982 78.1101 134.984 78.088 134.986C78.044 134.99 77.9786 134.996 77.8934 135.005C77.7229 135.021 77.4731 135.045 77.1553 135.076C76.5197 135.137 75.6123 135.224 74.5245 135.329L76.6324 157.227C77.719 157.123 78.6254 157.036 79.2601 156.975C79.5774 156.944 79.8268 156.92 79.9969 156.904C80.0819 156.896 80.1471 156.889 80.191 156.885C80.2129 156.883 80.2295 156.881 80.2407 156.88C80.2462 156.88 80.2504 156.879 80.2532 156.879C80.2546 156.879 80.2557 156.879 80.2564 156.879C80.2567 156.879 80.257 156.879 80.2571 156.879C80.2572 156.879 80.2573 156.879 80.2573 156.879C80.2573 156.879 80.2574 156.879 80.2574 156.879C80.2574 156.879 80.2574 156.879 79.2062 145.929ZM74.6407 135.318C72.3972 135.51 69.4317 135.796 66.5434 136.072L68.6375 157.972C71.5861 157.69 74.4111 157.418 76.5162 157.238L74.6407 135.318ZM66.6146 136.065C63.6801 136.327 60.721 136.625 58.6245 136.83L60.7664 158.726C62.9488 158.512 65.7569 158.229 68.5663 157.979L66.6146 136.065ZM58.7477 136.819C57.6861 136.911 56.8001 136.985 56.181 137.037C55.8715 137.062 55.6289 137.082 55.4646 137.096C55.3825 137.102 55.3199 137.108 55.2784 137.111C55.2576 137.113 55.2421 137.114 55.2321 137.115C55.227 137.115 55.2234 137.115 55.2211 137.116C55.2199 137.116 55.2191 137.116 55.2187 137.116C55.2184 137.116 55.2183 137.116 55.2183 137.116C55.2182 137.116 55.2182 137.116 55.2182 137.116C55.2183 137.116 55.2183 137.116 55.2183 137.116C55.2183 137.116 55.2184 137.116 56.1026 148.08C56.9869 159.045 56.9869 159.045 56.987 159.045C56.987 159.045 56.9871 159.045 56.9871 159.045C56.9872 159.045 56.9873 159.045 56.9875 159.045C56.9878 159.045 56.9882 159.044 56.9887 159.044C56.9896 159.044 56.9909 159.044 56.9926 159.044C56.9958 159.044 57.0005 159.043 57.0066 159.043C57.0187 159.042 57.0363 159.041 57.0591 159.039C57.1049 159.035 57.1718 159.03 57.2584 159.022C57.4317 159.008 57.684 158.988 58.0038 158.961C58.6433 158.908 59.5538 158.831 60.6433 158.737L58.7477 136.819ZM54.9471 137.141C54.9813 137.137 55.2442 137.11 55.6754 137.136C56.0855 137.161 56.8915 137.249 57.8981 137.609C58.9334 137.98 60.3453 138.703 61.6409 140.071C62.9932 141.499 63.8182 143.212 64.1675 144.909L42.6194 149.345C43.6154 154.183 47.1258 157.12 50.4817 158.322C53.2098 159.298 55.7725 159.176 57.2582 159.019L54.9471 137.141ZM64.2335 145.258C64.6105 147.445 64.1417 149.186 63.7357 150.186L43.3535 141.905C42.6452 143.649 42.0601 146.135 42.5534 148.996L64.2335 145.258ZM63.6433 150.406C63.6411 150.411 63.6213 150.456 63.5765 150.525L45.1405 138.52C44.4446 139.589 43.8899 140.656 43.4459 141.685L63.6433 150.406ZM63.8745 150.04C64.6328 148.732 65.408 147.436 66.2282 146.065L47.3491 134.77C46.5414 136.12 45.6888 137.545 44.8425 139.005L63.8745 150.04ZM66.1569 146.183C66.9646 144.87 67.8508 143.442 68.7139 142.008L49.8631 130.665C49.0751 131.975 48.287 133.244 47.4204 134.653L66.1569 146.183ZM68.6924 142.043C69.5085 140.698 70.3887 139.249 71.2407 137.783L52.2199 126.728C51.4905 127.983 50.7196 129.254 49.8846 130.63L68.6924 142.043ZM71.1124 137.998C72.0087 136.533 72.8929 135.027 73.7412 133.476L54.4401 122.918C53.8001 124.088 53.103 125.28 52.3482 126.513L71.1124 137.998ZM73.6562 133.629C74.6767 131.831 75.0528 131.109 75.91 129.615L56.8291 118.664C56.1516 119.845 55.0626 121.819 54.525 122.766L73.6562 133.629ZM76.1235 129.225C76.8376 127.855 77.5392 126.509 78.2266 125.213L58.7915 114.904C58.0603 116.282 57.3201 117.703 56.6157 119.054L76.1235 129.225ZM78.3137 125.045C78.9267 123.84 79.7188 122.317 80.4225 120.898L60.7116 111.126C60.0665 112.428 59.4633 113.579 58.7044 115.071L78.3137 125.045ZM80.4568 120.828C81.1401 119.425 81.819 117.994 82.4696 116.596L62.5248 107.312C61.9197 108.612 61.2963 109.925 60.6773 111.196L80.4568 120.828ZM82.4486 116.641C83.2597 114.919 84.0263 113.212 84.7593 111.526L64.5837 102.754C63.9215 104.277 63.2463 105.78 62.5458 107.267L82.4486 116.641ZM84.7443 111.561C85.5143 109.806 86.2216 108.092 86.8874 106.451L66.5019 98.1787C65.8655 99.7471 65.2472 101.242 64.5988 102.72L84.7443 111.561ZM86.8769 106.477C87.5793 104.759 88.2354 103.061 88.8547 101.41L68.2554 93.6853C67.6887 95.1966 67.1123 96.6853 66.5125 98.1528L86.8769 106.477ZM88.8667 101.378C89.4958 99.684 90.0913 98.0314 90.6643 96.3855L69.8875 89.1521C69.3675 90.6456 68.8235 92.1556 68.2434 93.7176L88.8667 101.378ZM91.0816 94.827C90.953 95.5026 90.7785 96.0138 90.6581 96.3256C90.5305 96.656 90.4058 96.9112 90.3094 97.0912L70.9168 86.7023C70.4338 87.6039 69.7971 88.9944 69.4702 90.7106L91.0816 94.827ZM90.945 95.6719C92.071 92.5903 93.1531 89.222 93.4703 86.2316L71.593 83.9113C71.6036 83.8113 71.5769 84.0966 71.3401 84.9345C71.1178 85.7211 70.7757 86.7681 70.2812 88.1216L90.945 95.6719ZM93.4517 86.3951C93.6093 85.095 93.8223 82.4928 92.8494 79.6932C92.3066 78.1313 91.2816 76.1891 89.3877 74.5366C87.422 72.8213 85.1354 71.9575 82.9948 71.698L80.3475 93.5382C78.5906 93.3252 76.6267 92.5995 74.9234 91.1131C73.2919 89.6895 72.4689 88.0671 72.0685 86.915C71.6824 85.8041 71.6097 84.9183 71.5927 84.501C71.5744 84.0522 71.6079 83.778 71.6115 83.7478L93.4517 86.3951ZM80.1783 71.7199C75.4001 72.3744 72.0854 75.5219 70.513 77.1657L86.4111 92.3726C86.6785 92.0931 86.6492 92.1762 86.3124 92.3998C86.042 92.5793 84.949 93.2718 83.1641 93.5163L80.1783 71.7199ZM70.545 77.1324C68.6276 79.1202 66.7096 81.6708 64.8549 84.4658L83.1859 96.6302C84.6799 94.3789 85.7617 93.046 86.3791 92.406L70.545 77.1324ZM64.8678 84.4463C64.031 85.7015 63.0815 87.1189 62.1522 88.5828L80.726 100.373C81.4943 99.1629 82.2889 97.9757 83.1729 96.6497L64.8678 84.4463ZM62.1756 88.5461C61.2799 89.9449 60.3734 91.3972 59.4719 92.8998L78.3368 104.219C79.1096 102.931 79.9007 101.662 80.7026 100.41L62.1756 88.5461ZM59.5202 92.8201C58.6081 94.3114 57.713 95.8199 56.8116 97.3791L75.8578 108.39C76.6772 106.973 77.4797 105.621 78.2885 104.298L59.5202 92.8201ZM56.8167 97.3702C55.9075 98.9396 55.0124 100.565 54.2028 102.018L73.4204 112.727C74.3083 111.134 75.0643 109.76 75.8527 108.399L56.8167 97.3702ZM54.124 102.162C53.2997 103.695 52.5352 105.111 51.7779 106.481L71.0315 117.125C71.8555 115.634 72.6723 114.121 73.4991 112.583L54.124 102.162ZM51.6453 106.728C50.8469 108.263 50.1884 109.55 49.5199 110.799L68.9176 121.178C69.6676 119.777 70.4509 118.249 71.1641 116.878L51.6453 106.728ZM49.4308 110.969C48.0212 113.718 46.6986 116.337 45.4923 118.86L65.3409 128.349C66.4136 126.105 67.6257 123.701 69.0067 121.008L49.4308 110.969ZM45.4861 118.873C44.3853 121.184 43.4109 123.313 42.5698 125.159L62.5892 134.282C63.4224 132.453 64.3317 130.467 65.3471 128.336L45.4861 118.873ZM42.4917 125.335C41.6056 127.373 40.8651 129.214 40.2401 130.903L60.8726 138.538C61.3406 137.273 61.9256 135.812 62.6673 134.107L42.4917 125.335ZM40.1663 131.108C39.029 134.38 38.113 137.746 37.9455 140.761L59.9116 141.981C59.9029 142.137 59.9032 141.917 60.0776 141.195C60.2417 140.515 60.5161 139.57 60.9464 138.332L40.1663 131.108ZM37.9529 142.103C37.8839 141.069 38.1004 140.324 38.2773 139.916L58.4635 148.663C59.5474 146.162 60.0894 143.418 59.9042 140.639L37.9529 142.103ZM38.1635 140.189C38.3014 139.845 38.4883 139.53 38.6916 139.271C38.8868 139.022 39.0432 138.892 39.0777 138.865L52.7099 156.133C55.0433 154.29 57.2174 151.775 58.5774 148.391L38.1635 140.189ZM39.6971 138.41C39.958 138.232 39.9693 138.294 39.5062 138.43C39.0464 138.565 38.2749 138.728 37.1023 138.836L39.1279 160.743C43.3787 160.35 48.0982 159.309 52.0905 156.587L39.6971 138.41ZM38.1151 149.789C37.0205 138.844 37.0206 138.844 37.0208 138.844C37.0208 138.844 37.0209 138.844 37.021 138.844C37.0211 138.844 37.0213 138.844 37.0214 138.844C37.0216 138.844 37.0217 138.844 37.0217 138.844C37.0218 138.844 37.0216 138.844 37.021 138.844C37.0198 138.844 37.0173 138.844 37.0135 138.845C37.0058 138.845 36.993 138.847 36.975 138.848C36.9392 138.852 36.883 138.858 36.8079 138.865C36.6576 138.879 36.4317 138.901 36.1406 138.928C35.5579 138.982 34.7167 139.057 33.7001 139.141L35.5071 161.066C36.6067 160.976 37.5212 160.894 38.1652 160.834C38.4874 160.805 38.7426 160.78 38.9201 160.763C39.0089 160.755 39.0782 160.748 39.1269 160.743C39.1513 160.741 39.1704 160.739 39.1843 160.737C39.1912 160.737 39.1968 160.736 39.201 160.736C39.2031 160.735 39.2049 160.735 39.2064 160.735C39.2071 160.735 39.2077 160.735 39.2083 160.735C39.2085 160.735 39.2088 160.735 39.209 160.735C39.2091 160.735 39.2093 160.735 39.2094 160.735C39.2095 160.735 39.2096 160.735 38.1151 149.789ZM33.6243 139.147C31.0153 139.38 29.1202 139.58 25.9976 139.855L27.9313 161.77C30.3432 161.557 34.0293 161.199 35.5829 161.06L33.6243 139.147ZM25.9644 139.858C23.234 140.107 20.337 140.363 18.1577 140.596L20.4928 162.471C22.4528 162.262 25.0905 162.029 27.9644 161.767L25.9644 139.858ZM18.2061 140.591C17.2044 140.693 16.3688 140.775 15.7856 140.832C15.4942 140.86 15.2663 140.882 15.1126 140.897C15.0358 140.904 14.9775 140.91 14.9393 140.913C14.9202 140.915 14.906 140.916 14.897 140.917C14.8926 140.918 14.8894 140.918 14.8875 140.918C14.8865 140.918 14.8859 140.918 14.8856 140.918C14.8855 140.918 14.8854 140.918 14.8855 140.918C14.8855 140.918 14.8855 140.918 14.8856 140.918C14.8856 140.918 14.8856 140.918 14.8857 140.918C14.8857 140.918 14.8858 140.918 15.9068 151.871C16.9278 162.823 16.9279 162.823 16.928 162.823C16.928 162.823 16.9281 162.823 16.9282 162.823C16.9283 162.823 16.9284 162.823 16.9286 162.823C16.929 162.823 16.9294 162.823 16.93 162.823C16.931 162.823 16.9324 162.823 16.9341 162.823C16.9375 162.822 16.9423 162.822 16.9484 162.821C16.9605 162.82 16.9778 162.819 17.0002 162.816C17.045 162.812 17.1099 162.806 17.1937 162.798C17.3613 162.782 17.6042 162.759 17.9116 162.729C18.5261 162.669 19.3997 162.583 20.4444 162.476L18.2061 140.591ZM14.8813 140.919C14.5587 140.949 14.8275 140.893 15.4389 140.973C16.0747 141.056 17.5063 141.342 19.0692 142.414C20.7742 143.582 21.8298 145.128 22.3971 146.49C22.877 147.643 22.9464 148.518 22.9505 148.56L1.04955 150.646C1.19806 152.206 1.80968 157.255 6.63125 160.56C10.634 163.304 15.0586 162.998 16.9323 162.823L14.8813 140.919ZM22.5008 152.88L22.9542 151.426L1.95269 144.874L1.49923 146.327L22.5008 152.88ZM22.6942 152.166C22.7109 152.123 22.7349 152.067 22.7649 152.005C22.7948 151.943 22.8226 151.891 22.8438 151.855L3.85371 140.747C3.18404 141.892 2.63771 143.05 2.21276 144.134L22.6942 152.166ZM22.9846 151.607C23.9771 149.805 24.9596 148.054 25.9905 146.206L6.77652 135.49C5.78424 137.269 4.74366 139.124 3.71298 140.995L22.9846 151.607ZM26.0167 146.159C26.9459 144.473 28.0672 142.482 29.0828 140.573L9.6607 130.24C8.74615 131.959 7.82107 133.595 6.75036 135.537L26.0167 146.159ZM29.031 140.669C30.0534 138.793 31.0454 136.928 32.0154 135.083L12.5418 124.847C11.6049 126.629 10.6668 128.392 9.71254 130.143L29.031 140.669ZM32.0534 135.01C32.9825 133.21 33.9193 131.395 34.8572 129.566L15.2812 119.527C14.3586 121.326 13.435 123.115 12.5038 124.92L32.0534 135.01ZM34.933 129.415C35.7943 127.67 36.75 125.758 37.6587 123.842L17.7817 114.414C16.9695 116.126 16.1347 117.795 15.2053 119.678L34.933 129.415ZM37.5207 124.123C38.4801 122.241 39.4436 120.241 40.27 118.567L20.5423 108.829C19.5781 110.783 18.7975 112.411 17.9197 114.133L37.5207 124.123ZM40.2319 118.643C41.1348 116.849 42.061 114.997 42.9687 113.146L23.2154 103.46C22.3558 105.213 21.468 106.989 20.5803 108.753L40.2319 118.643ZM42.9179 113.248C43.8287 111.438 44.757 109.57 45.6578 107.695L25.8283 98.1669C25.0083 99.8734 24.146 101.61 23.2662 103.358L42.9179 113.248ZM45.6511 107.709C46.4695 106.012 47.2649 104.325 48.0371 102.648L28.0535 93.4471C27.3374 95.0025 26.598 96.571 25.8351 98.1528L45.6511 107.709ZM48.0618 102.594C48.7728 101.028 49.5694 99.2965 50.3156 97.5962L30.1701 88.7554C29.4978 90.2875 28.8061 91.7887 28.0288 93.5011L48.0618 102.594ZM50.3156 97.5962C51.0472 95.9291 51.7636 94.2574 52.458 92.637L32.2368 83.9708C31.536 85.606 30.8571 87.19 30.1701 88.7554L50.3156 97.5962ZM52.4991 92.5398C53.206 90.8459 53.8816 89.1682 54.5373 87.5289L34.1108 79.3584C33.4643 80.9748 32.8377 82.5295 32.1957 84.0679L52.4991 92.5398ZM54.5525 87.4909C55.1909 85.8774 55.8537 84.1968 56.4988 82.4725L35.8934 74.7641C35.3292 76.2722 34.7363 77.7775 34.0957 79.3964L54.5525 87.4909ZM56.4648 82.5621C57.1085 80.8862 57.7602 79.1335 58.3726 77.3602L37.5776 70.1792C37.0737 71.6382 36.5162 73.1413 35.9274 74.6745L56.4648 82.5621ZM58.3258 77.493C58.9437 75.7752 59.5317 74.0622 60.0985 72.2988L39.1539 65.5666C38.6742 67.0588 38.1692 68.5317 37.6244 70.0464L58.3258 77.493ZM60.0914 72.3207C60.6016 70.7448 61.1639 69.021 61.6908 67.2774L40.6312 60.914C40.1813 62.4028 39.6972 63.8882 39.1609 65.5447L60.0914 72.3207ZM61.5202 67.7954L61.5783 67.6326L40.8599 60.2333L40.8018 60.396L61.5202 67.7954ZM61.9279 66.4472C62.0908 65.7532 62.3405 64.9774 62.6901 64.1616L42.4689 55.4953C41.6325 57.4469 40.9753 59.4383 40.5103 61.4187L61.9279 66.4472ZM62.6422 64.2717C62.9372 63.6035 63.2559 62.9431 63.6057 62.2923L44.2276 51.8765C43.5774 53.0861 43.0124 54.2628 42.5168 55.3852L62.6422 64.2717ZM63.5569 62.3822C63.7562 62.0195 63.9145 61.7704 64.0252 61.6111C64.1366 61.4509 64.1792 61.4113 64.1413 61.4519C64.0722 61.5259 63.5619 62.0499 62.5387 62.4621L54.3175 42.056C49.166 44.1314 46.1165 48.4384 44.2765 51.7866L63.5569 62.3822ZM62.8485 62.3318C63.3401 62.116 63.9767 61.9296 64.8411 61.84L62.5727 39.9573C59.6233 40.263 56.7485 40.9835 54.0077 42.1863L62.8485 62.3318ZM64.9738 61.8254L65.7761 61.7324L63.2423 39.8788L62.44 39.9718L64.9738 61.8254ZM65.6166 61.7497C67.6764 61.5413 69.6167 61.3013 71.113 61.1278L68.5793 39.2742C66.8664 39.4728 65.2488 39.6746 63.4018 39.8615L65.6166 61.7497ZM71.0264 61.1375C71.8942 61.0438 72.7108 60.9479 73.4364 60.8624C74.1815 60.7747 74.808 60.7008 75.3899 60.6384L73.0462 38.7636C72.3258 38.8408 71.5745 38.9297 70.8633 39.0134C70.1326 39.0995 69.4143 39.1837 68.666 39.2645L71.0264 61.1375ZM75.4328 60.6337C78.0984 60.3376 80.4228 60.016 81.4772 59.8865L78.7956 38.0505C77.1989 38.2466 75.57 38.4831 73.0033 38.7683L75.4328 60.6337ZM81.1893 59.918L81.7939 59.8599L79.6881 37.9609L79.0835 38.019L81.1893 59.918ZM81.9252 59.8464C82.5181 59.7822 82.9387 59.7648 83.2077 59.7663C83.4903 59.7679 83.4923 59.79 83.2872 59.751L87.4037 38.1395C84.6698 37.6188 81.8959 37.721 79.5568 37.9743L81.9252 59.8464ZM83.1301 59.7199C83.0866 59.7109 82.7221 59.6346 82.1789 59.3716C81.6177 59.0998 80.7904 58.5905 79.98 57.7006L96.2455 42.8874C93.4667 39.8361 89.9783 38.6677 87.5608 38.1706L83.1301 59.7199ZM79.0124 56.4733C77.8825 54.8092 77.759 53.0857 77.8906 52.0735L99.707 54.9096C100.141 51.5719 99.6221 47.6625 97.2131 44.1148L79.0124 56.4733ZM77.963 51.5979C77.8021 52.5186 77.6675 53.0499 77.5495 53.4078L98.4434 60.2959C99.0231 58.5376 99.3769 56.8598 99.6346 55.3852L77.963 51.5979ZM77.8563 52.5884L77.4261 53.6116L97.7065 62.1385L98.1367 61.1153L77.8563 52.5884ZM87.5663 57.8751C77.2582 54.0354 77.2582 54.0354 77.2582 54.0353C77.2582 54.0354 77.2582 54.0353 77.2582 54.0353C77.2582 54.0354 77.2582 54.0354 77.2581 54.0355C77.258 54.0358 77.2579 54.0363 77.2576 54.0369C77.2571 54.0382 77.2563 54.0404 77.2552 54.0434C77.253 54.0493 77.2496 54.0585 77.2449 54.0709C77.2357 54.0957 77.2218 54.133 77.2034 54.1822C77.1667 54.2806 77.1123 54.426 77.0427 54.6118C76.9034 54.9836 76.7035 55.5161 76.4623 56.1554C75.9787 57.4368 75.3338 59.1346 74.6806 60.8214L95.1964 68.7652C95.8804 66.9987 96.5493 65.2374 97.0454 63.923C97.2939 63.2644 97.5002 62.7149 97.6448 62.329C97.717 62.136 97.774 61.9838 97.813 61.8792C97.8326 61.8269 97.8476 61.7864 97.858 61.7587C97.8631 61.7449 97.8671 61.7342 97.8699 61.7268C97.8712 61.7232 97.8723 61.7203 97.8731 61.7183C97.8734 61.7172 97.8737 61.7164 97.874 61.7158C97.8741 61.7155 97.8742 61.7153 97.8742 61.7151C97.8743 61.715 97.8743 61.7149 97.8743 61.7149C97.8744 61.7148 97.8744 61.7147 87.5663 57.8751ZM74.7515 60.6431C74.0697 62.3165 73.3664 64.0011 72.8305 65.2746C72.5633 65.9094 72.3395 66.4378 72.183 66.8063C72.1047 66.9905 72.0434 67.1344 72.0021 67.2315C71.9814 67.2801 71.9657 67.3169 71.9553 67.3411C71.9502 67.3532 71.9463 67.3621 71.9439 67.3679C71.9427 67.3707 71.9418 67.3727 71.9413 67.374C71.941 67.3746 71.9408 67.375 71.9408 67.3752C71.9407 67.3753 71.9407 67.3753 71.9407 67.3753C71.9407 67.3753 71.9407 67.3753 71.9407 67.3753C71.9407 67.3752 71.9408 67.3751 82.0549 71.7C92.169 76.0249 92.1691 76.0248 92.1691 76.0247C92.1691 76.0246 92.1692 76.0245 92.1692 76.0244C92.1693 76.0242 92.1694 76.0239 92.1696 76.0236C92.1699 76.0229 92.1702 76.0221 92.1707 76.021C92.1716 76.0189 92.1728 76.0159 92.1745 76.0121C92.1777 76.0046 92.1823 75.9937 92.1883 75.9797C92.2003 75.9516 92.2177 75.9109 92.2401 75.8582C92.285 75.753 92.3501 75.6002 92.4323 75.4066C92.5966 75.0197 92.8299 74.4689 93.1077 73.8088C93.6618 72.4922 94.4004 70.7235 95.1255 68.9436L74.7515 60.6431ZM87.0898 81.4801C89.5308 80.2234 91.5231 79.5422 93.0868 79.2255L88.7198 57.6632C84.7722 58.4628 80.8578 59.9442 77.02 61.9199L87.0898 81.4801ZM92.9907 79.2445C95.9112 78.68 97.3193 78.4538 97.8814 78.4078L96.0874 56.481C94.0916 56.6443 91.43 57.139 88.8159 57.6442L92.9907 79.2445ZM98.142 78.3833C99.7082 78.2176 100.742 78.2588 101.316 78.3356L104.234 56.5299C101.505 56.1649 98.6559 56.2061 95.8269 56.5055L98.142 78.3833ZM100.966 78.2831C102.026 78.4597 102.032 78.686 101.653 78.3594L116.013 61.692C112.61 58.7608 108.547 57.243 104.583 56.5824L100.966 78.2831ZM101.653 78.3594C101.47 78.2016 101.327 78.0208 101.239 77.8694C101.156 77.7294 101.173 77.7047 101.216 77.8774L122.566 72.5688C121.564 68.5392 119.49 64.688 116.013 61.692L101.653 78.3594ZM101.057 77.1279C101.055 77.1193 101.101 77.388 101.066 78.1349L123.041 79.1715C123.122 77.4533 123.098 75.4431 122.725 73.3183L101.057 77.1279ZM101.061 78.246C101.047 78.6136 100.974 79.255 100.726 80.4478L122.265 84.9279C122.621 83.2139 122.967 81.2043 123.046 79.0603L101.061 78.246ZM100.747 80.3475C100.534 81.3287 100.211 82.4943 99.7684 83.7939L120.595 90.8837C121.268 88.9045 121.829 86.9307 122.244 85.0282L100.747 80.3475ZM99.7979 83.7082C99.2962 85.1432 98.74 86.5846 98.0681 88.0684L118.109 97.1436C119.112 94.9299 119.904 92.8599 120.565 90.9694L99.7979 83.7082ZM97.9423 88.3572C97.2116 90.102 96.4409 91.8557 95.6413 93.5496L115.536 102.941C116.504 100.891 117.407 98.8308 118.235 96.8548L97.9423 88.3572ZM95.5266 93.8007C94.7637 95.528 93.9472 97.2228 92.9929 99.2415L112.882 108.644C113.742 106.826 114.739 104.753 115.651 102.69L95.5266 93.8007ZM93.109 99.0033L90.8184 103.561L110.476 113.44L112.766 108.882L93.109 99.0033ZM90.7523 103.695L87.9966 109.369L107.786 118.98L110.542 113.306L90.7523 103.695ZM87.9092 109.553C86.9804 111.56 86.1008 113.564 85.2805 115.451L105.456 124.223C106.263 122.366 107.058 120.557 107.874 118.796L87.9092 109.553ZM85.2162 115.602C84.4238 117.502 83.6441 119.371 82.8548 121.235L103.114 129.811C103.93 127.885 104.731 125.963 105.52 124.073L85.2162 115.602ZM82.784 121.406C81.6581 124.196 80.6192 127.006 79.6978 129.808L100.597 136.679C101.35 134.389 102.218 132.036 103.185 129.64L82.784 121.406ZM79.6792 129.865C78.8198 132.528 77.9452 135.408 77.2617 138.334L98.6847 143.339C99.164 141.288 99.8242 139.075 100.616 136.622L79.6792 129.865ZM77.2174 138.532C77.2384 138.434 77.2573 138.363 77.2689 138.322C77.2806 138.281 77.2875 138.261 77.2864 138.264C77.2853 138.267 77.2783 138.287 77.2635 138.325C77.2487 138.363 77.2279 138.414 77.1999 138.48L97.4211 147.146C97.8407 146.167 98.3812 144.765 98.7291 143.141L77.2174 138.532ZM77.376 138.09C77.8228 137.15 78.4563 136.436 79.0559 135.971L92.5419 153.353C94.4903 151.841 96.1238 149.894 97.2449 147.536L77.376 138.09ZM80.2487 135.165C80.6922 134.905 81.0531 134.747 81.2634 134.661C81.4821 134.572 81.6341 134.524 81.6918 134.507C81.7927 134.476 81.7283 134.502 81.4228 134.56C80.8028 134.678 79.7575 134.826 78.1547 134.979L80.2576 156.879C82.1663 156.695 83.9698 156.471 85.5445 156.17C86.7588 155.939 89.1513 155.443 91.3492 154.159L80.2487 135.165Z" fill="#F7F8FD" mask="url(#path-2-outside-1_1_888)"/>
<path d="M108.58 148.488L108.588 148.487C111.192 148.244 113.972 147.315 116.81 146.048C117.932 145.551 119.066 144.965 120.204 144.283C121.053 144.933 121.996 145.406 122.943 145.729L122.993 145.746L123.043 145.762C125.152 146.435 127.462 146.457 129.622 146.269L129.791 146.254L129.959 146.229L131.065 146.064L131.092 146.061L131.563 146.015C131.968 145.975 132.547 145.918 133.242 145.848C134.628 145.71 136.479 145.524 138.338 145.332C140.208 145.145 142.07 144.956 143.464 144.814C144.162 144.742 144.744 144.683 145.151 144.641L145.624 144.592L145.749 144.579L145.781 144.576L145.789 144.575L145.791 144.575L145.792 144.575L145.792 144.575L145.805 144.573C147.424 144.402 149.046 143.952 150.669 143.208L150.958 143.076L151.23 142.911C154.353 141.016 156.421 137.899 157.851 134.511L157.852 134.507C158.538 132.879 159.193 131.332 159.878 129.795L159.884 129.782L159.89 129.768C160.577 128.201 161.287 126.646 162.02 125.102L162.037 125.065L162.054 125.028C162.19 124.73 162.325 124.435 162.459 124.142C163.055 122.834 163.632 121.568 164.225 120.307L164.232 120.292L164.239 120.277C164.885 118.882 165.541 117.478 166.193 116.081L166.442 115.547L166.451 115.528L166.46 115.509L169.39 109.102L169.402 109.075L169.414 109.048C170.21 107.257 170.97 105.514 171.695 103.831C172.286 102.498 172.851 101.189 173.384 99.9517C173.52 99.6357 173.654 99.3245 173.786 99.0187C173.888 98.783 173.991 98.5439 174.096 98.3025C174.634 97.0619 175.198 95.7583 175.688 94.514C176.309 93.0546 176.862 91.6586 177.359 90.3153C178.364 87.7062 179.201 85.2985 179.856 83.0729C180.501 80.9373 180.997 78.9568 181.322 77.172L181.337 77.0882L181.35 77.004C181.632 75.1201 181.78 73.1541 181.596 71.1967L181.595 71.1923C181.413 69.2691 180.921 67.3828 180.05 65.6449C179.173 63.8488 177.951 62.3422 176.57 61.1186L176.53 61.0831L176.489 61.0483C174.988 59.7699 173.297 58.8517 171.611 58.148L171.513 58.1073L171.415 58.0704C169.524 57.3651 167.592 56.914 165.695 56.6159L165.671 56.612L165.646 56.6084C163.59 56.3044 161.503 56.2433 159.42 56.3182C157.664 56.3457 155.743 56.4603 153.703 56.6833C151.575 56.8938 148.913 57.3225 145.783 57.8947L145.774 57.8964C143.92 58.2386 141.989 58.7838 140.018 59.5423C138.071 60.2617 136.05 61.2014 134.024 62.2634C130.625 64.0216 127.675 66.31 125.148 69.1034L125.148 69.1034L125.139 69.1136C123.898 70.4925 122.753 71.9824 121.708 73.6053L121.701 73.6153C120.687 75.1972 119.749 76.9137 118.922 78.7274C117.912 80.9384 117.029 83.0432 116.384 84.9642C115.742 86.7275 115.218 88.4858 114.976 90.1562C114.61 92.4453 115.013 95.4888 117.711 97.5869L117.858 97.7012L118.012 97.8054C118.224 97.9481 118.437 98.0764 118.651 98.1914C117.503 98.8576 116.377 99.5972 115.27 100.402L115.26 100.41C113.526 101.678 111.887 103.034 110.329 104.476L110.302 104.501L110.276 104.526C108.744 105.981 107.254 107.532 105.825 109.25L105.82 109.256C104.416 110.949 103.111 112.761 101.924 114.612L101.92 114.619C100.683 116.553 99.5884 118.575 98.6206 120.666L98.6092 120.691L98.5981 120.715C97.2438 123.718 96.2582 126.551 95.5899 129.224L95.5797 129.264L95.5702 129.305C94.948 131.966 94.6053 134.643 94.7713 137.272C94.8861 139.607 95.5272 141.996 97.1148 144.073L97.1206 144.08C98.7243 146.17 100.912 147.462 103.258 148.135L103.418 148.181L103.581 148.217C105.312 148.602 107.02 148.631 108.58 148.488ZM135.298 95.5157C135.298 95.5159 135.293 95.5156 135.282 95.5143C135.293 95.5149 135.299 95.5155 135.298 95.5157Z" stroke="#F7F8FD" stroke-width="11"/>
<path d="M211.19 138.933L211.252 138.927L211.313 138.921C212.725 138.767 214.273 138.546 215.96 138.206C218.481 137.704 220.778 136.74 222.871 135.441C225.055 134.086 226.94 132.345 228.614 130.378L228.638 130.35L228.661 130.322C230.479 128.127 231.972 125.734 233.105 123.147C233.904 121.366 234.553 119.656 235.103 118.056L235.117 118.014L235.131 117.971C235.671 116.315 236.107 114.689 236.423 113.049C236.743 111.81 237.083 110.582 237.454 109.332L237.464 109.297L237.474 109.261C237.839 107.968 238.23 106.683 238.647 105.328L238.65 105.315L238.654 105.303C239.051 103.992 239.473 102.701 239.926 101.332L239.93 101.318L239.935 101.305C240.357 100.005 240.805 98.7046 241.285 97.3434L241.29 97.3318C241.765 95.9758 242.242 94.6249 242.726 93.3058C243.211 91.9875 243.72 90.6521 244.255 89.2866L244.258 89.2784C244.594 88.4174 244.927 87.5797 245.269 86.7191C245.464 86.2269 245.663 85.7272 245.867 85.2114C246.187 84.4234 246.497 83.68 246.817 82.9117C247.052 82.3481 247.293 81.7711 247.547 81.1534C248.16 79.7021 248.786 78.2556 249.444 76.7432L249.453 76.7221L249.462 76.7009C250.055 75.3075 250.71 73.8739 251.396 72.3862L251.407 72.3611L251.419 72.3359C251.947 71.1581 252.497 69.968 253.067 68.7364C253.194 68.46 253.323 68.1814 253.453 67.9005L253.454 67.8981C254.137 66.416 254.819 64.9533 255.514 63.5517L255.529 63.521L255.544 63.4901C255.728 63.1062 255.911 62.7264 256.092 62.349C256.628 61.2309 257.154 60.1334 257.703 59.0104L257.703 59.0097C258.431 57.5202 259.17 56.0189 259.909 54.5291L259.916 54.5141L259.924 54.499C260.057 54.2267 260.188 53.9576 260.318 53.6908C260.927 52.4432 261.51 51.2474 262.126 50.0247L262.153 49.9721L262.178 49.919C262.466 49.3158 262.768 48.6886 263.074 48.0533C263.483 47.2042 263.899 46.3406 264.297 45.5004C265.587 43.0972 266.553 40.5877 267.219 37.9621L267.252 37.832L267.279 37.7005L267.651 35.8633L267.745 35.3995L267.758 34.9264C267.813 32.9785 267.488 30.9609 266.519 29.088C265.529 27.1761 264.034 25.7389 262.275 24.7531L262.256 24.7423L262.237 24.7317C260.46 23.7542 258.512 23.2977 256.609 23.1223C254.748 22.9383 252.691 22.9828 250.486 23.2547C248.879 23.4511 247.372 23.6732 245.931 23.9215C244.403 24.1851 242.982 24.5095 241.695 24.8313L241.674 24.8367L241.652 24.8422C238.933 25.5451 236.48 26.4571 234.321 27.558L234.307 27.5652L234.293 27.5725C229.92 29.8346 226.99 33.426 225.757 38.1168L225.74 38.179L225.726 38.2416L225.377 39.7066L225.36 39.7769L225.345 39.8475C224.999 41.4909 224.802 43.0375 224.795 44.4478C224.565 46.2877 224.225 48.1624 223.765 50.035C223.256 52.0133 222.607 54.0316 221.817 56.1277C221.371 57.2565 220.984 58.1683 220.659 58.8835C218.394 58.1918 216.049 58.0827 213.785 58.3091L213.739 58.3138L213.693 58.3192C211.863 58.5335 209.482 59.1412 206.726 60.0396C204.981 60.6056 203.183 61.4494 201.391 62.4869L201.378 62.4947L201.365 62.5025C199.61 63.5318 197.734 64.7939 195.773 66.2888C193.843 67.7347 191.947 69.2998 190.145 70.9985C188.354 72.6629 186.661 74.4323 185.102 76.2723L185.092 76.2852L185.081 76.2981C183.564 78.1108 182.157 79.935 180.836 81.7398C179.422 83.647 178.165 85.554 176.989 87.4462L176.978 87.4636L176.967 87.4812C175.805 89.3827 174.727 91.2483 173.698 93.1241L173.692 93.1351L173.686 93.1461C172.669 95.0202 171.703 96.9401 170.822 98.8245C169.562 101.492 168.424 104.2 167.51 106.966C166.617 109.646 165.92 112.323 165.41 114.995C164.899 117.354 164.536 119.688 164.413 121.943C164.291 124.161 164.365 126.338 164.71 128.438L164.713 128.457L164.716 128.476C165.017 130.229 165.556 131.859 166.372 133.379L166.405 133.441L166.439 133.501C167.348 135.097 168.536 136.402 169.859 137.446L169.911 137.487L169.965 137.527C171.451 138.643 173.084 139.395 174.781 139.897C176.455 140.403 178.252 140.684 180.14 140.761C181.726 140.849 183.298 140.86 184.796 140.848L184.86 140.848L184.924 140.846C186.511 140.796 188.105 140.697 189.718 140.551C190.019 140.528 190.395 140.498 190.852 140.46C192.04 140.364 193.785 140.222 196.229 140.057L196.283 140.053L196.338 140.048C197.264 139.967 198.11 139.901 199.041 139.829C199.987 139.756 201.021 139.676 202.316 139.566C204.635 139.414 207.251 139.228 210.165 139.021L210.207 139.018L210.248 139.014L211.19 138.933ZM222.507 59.6053C222.51 59.6068 222.512 59.6077 222.512 59.6078C222.512 59.6079 222.51 59.6071 222.507 59.6053ZM204.447 91.4099C203.649 92.6222 202.806 93.7187 201.927 94.7201C202.292 93.6768 202.753 92.5355 203.326 91.2982L203.329 91.2899L203.333 91.2816C204.114 89.5789 204.996 87.973 205.964 86.4524C206.848 85.106 207.75 83.8776 208.691 82.7842C208.316 83.8577 207.827 85.0631 207.21 86.3823L207.202 86.4003L207.194 86.4184C206.336 88.2899 205.424 89.9332 204.456 91.3951L204.451 91.4024L204.447 91.4099Z" stroke="#F7F8FD" stroke-width="11"/>
<path d="M260.457 133.539L260.45 133.54L260.45 133.54L260.45 133.54L260.448 133.54L260.445 133.54L260.432 133.542L260.382 133.546L260.196 133.565C260.033 133.58 259.796 133.603 259.496 133.631C258.896 133.688 258.041 133.767 257.017 133.857C256.363 133.915 255.62 133.982 254.82 134.055C253.23 134.2 251.414 134.365 249.624 134.513C247.752 134.699 245.841 134.862 244.21 135.001C243.5 135.061 242.842 135.117 242.264 135.169C241.268 135.268 240.445 135.35 239.87 135.408L239.199 135.475L239.023 135.493L238.979 135.497L238.967 135.499L238.965 135.499L238.964 135.499L238.964 135.499L238.926 135.503L238.889 135.506C237.552 135.623 235.959 135.519 234.385 134.807C232.724 134.055 231.493 132.81 230.708 131.347L230.637 131.215L230.573 131.08C229.182 128.111 229.727 125.085 230.747 122.723L230.899 122.371L231.098 122.044L234.145 117.035C234.148 117.031 234.15 117.026 234.153 117.022C235.148 115.365 236.254 113.494 237.495 111.332L237.605 111.134C238.797 109 240.117 106.636 241.543 104.037C242.245 102.737 242.962 101.377 243.671 100.01C243.775 99.8033 243.878 99.5981 243.981 99.3937C244.594 98.1759 245.19 96.9907 245.78 95.772L245.795 95.7415L245.81 95.7112C246.498 94.3325 247.161 92.916 247.839 91.4244L247.857 91.3861L247.875 91.348C248.551 89.9186 249.204 88.438 249.876 86.8771L249.888 86.8506L249.9 86.8242C250.552 85.3546 251.176 83.8724 251.791 82.3909C252.4 80.8861 252.96 79.4858 253.472 78.1124L253.486 78.0745L253.5 78.0368C254.031 76.674 254.527 75.3248 254.989 73.9891L254.993 73.9762L254.998 73.9633C255.486 72.5745 255.933 71.3003 256.334 70.0597C257.172 67.4037 257.89 65.0893 258.479 63.034C259.064 60.9502 259.531 59.2105 259.884 57.724L260.9 52.9701L260.971 52.6356L261.084 52.3126C262.023 49.6135 263.585 47.1404 266.003 45.304C267.865 43.874 269.991 42.9899 272.262 42.521C271.119 41.1083 270.27 39.4915 269.695 37.7349C269.132 36.0764 268.807 34.363 268.726 32.6205L268.725 32.616C268.648 30.9222 268.77 29.1653 269.166 27.3643C269.719 24.7314 270.687 22.2471 272.05 19.9176L272.055 19.908C273.455 17.5262 275.241 15.3955 277.34 13.4659L260.457 133.539ZM260.457 133.539L260.464 133.538C263.149 133.266 265.514 132.025 267.49 130.43L267.548 130.383L267.605 130.335C269.6 128.633 271.195 126.555 272.19 124.122L272.29 123.876L272.366 123.622L274.505 116.504L274.51 116.487L274.515 116.471C274.859 115.297 275.214 114.102 275.62 112.832L275.634 112.791L275.646 112.749C276.028 111.488 276.469 110.138 276.955 108.654C277.447 107.187 277.968 105.649 278.531 104.041L278.543 104.009L278.554 103.976C278.985 102.694 279.451 101.375 279.952 99.956C280.062 99.644 280.174 99.3272 280.288 99.0049L280.335 98.8887C280.399 98.7329 280.491 98.5049 280.609 98.2145C280.841 97.6401 281.171 96.8208 281.567 95.8309C282.243 94.2019 283.074 92.1321 283.923 90.0161C284.107 89.5574 284.292 89.0965 284.476 88.6374C285.538 86.0053 286.575 83.3557 287.346 81.3527C287.728 80.378 288.043 79.567 288.263 78.9983C288.374 78.7125 288.461 78.4878 288.52 78.3341L288.565 78.2173M260.457 133.539L288.565 78.2173M288.565 78.2173C289.342 76.45 290.081 74.7765 290.797 73.1816L290.801 73.1732L290.804 73.1648C290.965 72.8042 291.122 72.449 291.278 72.0988C291.837 70.8409 292.367 69.6468 292.892 68.4893L292.907 68.4547L292.923 68.4198C293.464 67.1813 294.004 66.0011 294.537 64.8376C294.618 64.6598 294.699 64.4824 294.78 64.3053L294.795 64.2741L294.808 64.2427C295.229 63.2919 295.628 62.4295 296.034 61.5539C296.187 61.2235 296.341 60.8912 296.497 60.5516L296.502 60.5415L296.507 60.5314C298.442 56.2795 299.551 53.8147 299.831 53.1858C299.985 52.868 300.096 52.5878 300.174 52.3756C300.219 52.2523 300.256 52.143 300.28 52.0719C300.311 51.9805 300.316 51.9664 300.328 51.9297L300.347 51.8744L300.365 51.8188C300.877 50.2315 301.163 48.1976 300.459 46.094C299.92 44.4822 298.942 43.2474 297.791 42.3518C298.44 41.8345 299.08 41.2836 299.71 40.7004L299.724 40.6876L299.737 40.6748C301.779 38.7593 303.563 36.6524 304.976 34.3148C306.392 31.9915 307.423 29.4988 308.022 26.8281L308.026 26.8118L308.029 26.7955C308.402 25.0859 308.589 23.3413 308.509 21.5417C308.443 19.8206 308.152 18.072 307.573 16.3327L307.57 16.3246C306.485 13.083 304.455 10.3909 301.525 8.54274C298.486 6.6186 294.921 6.55447 292.778 6.51592C292.551 6.51184 292.341 6.50806 292.148 6.50239L291.757 6.49087L291.369 6.5348C288.806 6.82444 286.336 7.59468 283.989 8.78541C281.582 9.97255 279.384 11.5858 277.34 13.4653L288.565 78.2173Z" stroke="#F7F8FD" stroke-width="11"/>
</svg>
